<?xml version="1.0" encoding="utf-8"?>
<!-- Generator: Adobe Illustrator 16.0.0, SVG Export Plug-In . SVG Version: 6.00 Build 0)  -->
<!DOCTYPE svg PUBLIC "-//W3C//DTD SVG 1.1//EN" "http://www.w3.org/Graphics/SVG/1.1/DTD/svg11.dtd">
<svg version="1.1" id="Слой_1" xmlns="http://www.w3.org/2000/svg" xmlns:xlink="http://www.w3.org/1999/xlink" x="0px" y="0px"
	 width="2000px" height="2000px" viewBox="1940.698 3020.168 2000 2000" enable-background="new 1940.698 3020.168 2000 2000"
	 xml:space="preserve">
<g id="Слой_2">
</g>
<g id="Слой_3">
</g>
<g id="Слой_1_1_">
	<rect x="1940.698" y="3020.168" fill="#15232E" width="2000" height="2000"/>
	<g>
		<polygon fill="#25C2A0" points="2644.348,3772.014 2620.845,3772.014 2601.72,3811.883 2595.523,3811.883 2595.523,3772.014 
			2576.33,3772.014 2576.33,3870.067 2595.523,3870.067 2595.523,3829.325 2603.872,3829.325 2623.268,3870.067 2646.571,3870.067 
			2617.613,3816.8 		"/>
		<path fill="#25C2A0" d="M2699.302,3838.753c0,6.24-1.213,10.707-3.638,13.4c-2.425,2.694-5.949,4.04-10.572,4.04
			c-4.489,0-7.97-1.415-10.438-4.243c-2.47-2.83-3.702-7.23-3.702-13.2v-66.737h-19.125v66.737c0,10.415,3.063,18.475,9.192,24.178
			c6.127,5.7,14.152,8.552,24.075,8.552c9.922,0,17.947-2.837,24.074-8.52c6.127-5.678,9.192-13.748,9.192-24.21v-66.738h-19.058
			v66.741H2699.302z"/>
		<path fill="#25C2A0" d="M2780.787,3819.357c4.13-1.797,7.228-4.5,9.293-8.117c2.064-3.613,3.097-7.756,3.097-12.423
			c0-8.89-2.84-15.577-8.52-20.07c-5.68-4.489-13.57-6.735-23.673-6.735h-28.89v98.053h32.73c10.01,0,17.7-2.425,23.065-7.272
			c5.364-4.848,8.047-11.962,8.047-21.348c0-5.431-1.234-10.167-3.704-14.208C2789.765,3823.195,2785.95,3820.569,2780.787,3819.357
			z M2751.292,3787.302h9.697c4.355,0,7.61,1.067,9.766,3.207c2.155,2.138,3.232,5.502,3.232,10.096c0,4.097-1.043,7.234-3.13,9.42
			c-2.088,2.183-5.085,3.319-8.99,3.41h-10.572v-26.133H2751.292z M2773.885,3851.415c-2,2.245-5.018,3.367-9.058,3.367h-13.535
			v-27.947h14.814c3.773,0,6.511,1.257,8.218,3.772c1.705,2.516,2.558,6.104,2.558,10.775
			C2776.883,3845.822,2775.882,3849.168,2773.885,3851.415z"/>
		<polygon fill="#25C2A0" points="2827.792,3827.035 2860.725,3827.035 2860.725,3811.748 2827.792,3811.748 2827.792,3787.302 
			2866.38,3787.302 2866.38,3772.014 2808.6,3772.014 2808.6,3870.067 2866.517,3870.067 2866.517,3854.78 2827.792,3854.78 		"/>
		<path fill="#25C2A0" d="M2940.257,3853.297v-6.935c0-5.925-1.109-10.864-3.332-14.817c-2.223-3.95-5.848-6.777-10.875-8.485
			c4.399-2.199,7.742-5.152,10.034-8.854c2.29-3.702,3.436-8.115,3.436-13.232c0-9.067-2.753-16.15-8.25-21.248
			c-5.5-5.095-13.078-7.645-22.73-7.645h-31.987v97.987h19.125v-38.992h13.872c3.726,0,6.588,1.348,8.588,4.042
			c1.998,2.692,2.995,6.487,2.995,11.38v6.668c0,3.367,0.203,6.667,0.604,9.897c0.405,3.232,1.391,5.567,2.966,7.005h19.797v-1.415
			c-1.569-1.392-2.673-3.625-3.3-6.699C2940.57,3858.877,2940.257,3855.992,2940.257,3853.297z M2917.363,3812.218
			c-2.021,2.38-4.984,3.569-8.89,3.569h-12.795v-28.419h12.862c3.862,0,6.803,1.325,8.823,3.973
			c2.02,2.649,3.029,6.218,3.029,10.707C2920.393,3806.45,2919.383,3809.84,2917.363,3812.218z"/>
		<polygon fill="#25C2A0" points="3004.305,3834.51 3003.9,3834.644 2973.933,3772.014 2954.738,3772.014 2954.738,3870.067 
			2973.933,3870.067 2973.933,3807.505 2974.335,3807.37 3004.305,3870.067 3023.363,3870.067 3023.363,3772.014 3004.305,3772.014 
					"/>
		<polygon fill="#25C2A0" points="3057.505,3827.035 3090.435,3827.035 3090.435,3811.748 3057.505,3811.748 3057.505,3787.302 
			3096.092,3787.302 3096.092,3772.014 3038.31,3772.014 3038.31,3870.067 3096.228,3870.067 3096.228,3854.78 3057.505,3854.78 		
			"/>
		<polygon fill="#25C2A0" points="3102.087,3787.302 3124.04,3787.302 3124.04,3870.067 3143.167,3870.067 3143.167,3787.302 
			3165.255,3787.302 3165.255,3772.014 3102.087,3772.014 		"/>
		<polygon fill="#25C2A0" points="3193.675,3827.035 3226.608,3827.035 3226.608,3811.748 3193.675,3811.748 3193.675,3787.302 
			3232.263,3787.302 3232.263,3772.014 3174.48,3772.014 3174.48,3870.067 3232.398,3870.067 3232.398,3854.78 3193.675,3854.78 		
			"/>
		<path fill="#25C2A0" d="M3298.025,3824.777c-4.692-4.824-11.685-8.81-20.978-11.952c-5.883-2.56-10.013-4.883-12.391-6.973
			c-2.379-2.088-3.569-4.747-3.569-7.979c0-3.503,1.067-6.408,3.2-8.721c2.132-2.313,5.104-3.467,8.923-3.467
			c4.085,0,7.249,1.39,9.495,4.174c2.242,2.785,3.367,6.421,3.367,10.91h18.588l0.135-0.405c0.178-8.574-2.65-15.68-8.488-21.314
			c-5.837-5.635-13.425-8.452-22.762-8.452c-9.202,0-16.768,2.524-22.692,7.577c-5.928,5.05-8.89,11.595-8.89,19.63
			c0,8.128,2.547,14.445,7.645,18.958c5.096,4.512,12.738,8.542,22.931,12.087c4.982,2.155,8.463,4.346,10.438,6.565
			c1.976,2.222,2.963,5.242,2.963,9.058c0,3.682-0.978,6.6-2.928,8.755c-1.952,2.155-4.949,3.232-8.992,3.232
			c-5.162,0-9.021-1.325-11.582-3.976c-2.558-2.647-3.84-7.003-3.84-13.065h-18.652l-0.135,0.402
			c-0.226,10.192,3.088,18.016,9.932,23.47c6.846,5.455,14.938,8.183,24.277,8.183c9.383,0,16.902-2.399,22.561-7.208
			c5.657-4.802,8.487-11.447,8.487-19.935C3305.063,3836.125,3302.718,3829.604,3298.025,3824.777z"/>
	</g>
	<g>
		<path fill="#FFFFFF" d="M3352.853,4254.032c0,4.703-2.516,9.047-6.605,11.423l-52.582,30.277c-4.088,2.353-9.12,2.353-13.208,0
			l-52.627-30.277c-4.09-2.353-6.605-6.697-6.605-11.4v-60.585c0-4.705,2.516-9.047,6.605-11.423l52.604-30.3
			c4.09-2.35,9.12-2.35,13.21,0l52.605,30.277c4.09,2.351,6.604,6.698,6.604,11.4v60.607H3352.853z M3345.8,4250.78v-54.085
			c0-4.213-2.247-8.088-5.907-10.192l-46.971-27.01c-3.638-2.105-8.152-2.105-11.792,0l-46.968,27.035
			c-3.641,2.104-5.908,5.979-5.908,10.189v54.088c0,4.21,2.247,8.087,5.908,10.192l46.968,27.032c3.662,2.104,8.152,2.104,11.792,0
			l46.971-27.056C3343.555,4258.867,3345.8,4254.992,3345.8,4250.78z"/>
		<g>
			<path fill="#FFFFFF" d="M3317.885,4243.985c0,7.527-6.122,13.632-13.673,13.632h-39.582c-5.955,0-10.765-4.797-10.765-10.734
				s4.81-10.735,10.765-10.735c0.048,0,0.095,0,0.146,0c0.832-5.082,5.262-8.952,10.622-8.952c0.57,0,1.143,0.045,1.69,0.142
				c2.572-5.39,8.072-9.095,14.457-9.095c7.623,0,14.005,5.317,15.601,12.443
				C3313.287,4232.015,3317.885,4237.478,3317.885,4243.985z"/>
			<path fill="#FFFFFF" d="M3296.545,4215.607c5.572,1.141,11.41-4.395,13.027-12.324c1.62-7.934-1.595-15.293-7.17-16.433
				c-5.572-1.143-11.407,4.393-13.027,12.322C3287.757,4207.127,3290.948,4214.49,3296.545,4215.607z"/>
			<path fill="#FFFFFF" d="M3277.752,4215.607c5.573-1.143,8.788-8.478,7.17-16.435c-1.617-7.933-7.452-13.465-13.027-12.322
				c-5.572,1.14-8.787,8.478-7.17,16.433C3266.345,4211.21,3272.183,4216.745,3277.752,4215.607z"/>
			<path fill="#FFFFFF" d="M3262.63,4229.109c4.287-2.042,5.407-8.645,2.502-14.744c-2.907-6.105-8.742-9.431-13.052-7.388
				c-4.288,2.039-5.408,8.643-2.5,14.744C3252.508,4227.827,3258.343,4231.13,3262.63,4229.109z"/>
			<path fill="#FFFFFF" d="M3320.84,4206.415c-4.503-1.498-9.91,2.493-12.053,8.905s-0.237,12.847,4.265,14.343
				c4.503,1.497,9.907-2.493,12.053-8.908C3327.27,4214.325,3325.363,4207.91,3320.84,4206.415z"/>
		</g>
	</g>
	<g>
		<path fill="#FFFFFF" d="M2569.032,4297.428c-0.782,0-1.567-0.208-2.265-0.623l-61.048-36.17c-1.353-0.8-2.18-2.255-2.18-3.825
			v-67.859c0-1.551,0.808-2.99,2.132-3.798c1.323-0.811,2.971-0.867,4.353-0.155l61.048,31.478c1.479,0.763,2.407,2.288,2.407,3.953
			v72.553c0,1.597-0.857,3.072-2.245,3.861C2570.552,4297.232,2569.792,4297.428,2569.032,4297.428z M2512.433,4254.277
			l52.155,30.903v-62.04l-52.155-26.893V4254.277z"/>
	</g>
	<path fill="#FFFFFF" d="M2831.38,4185.152c-1.325-0.811-2.973-0.867-4.353-0.155l-59.01,30.428l-59.011-30.428
		c-1.38-0.712-3.027-0.655-4.352,0.155c-1.325,0.808-2.133,2.245-2.133,3.798v67.859c0,1.57,0.827,3.025,2.18,3.825l61.048,36.17
		c0.01,0.005,0.022,0.008,0.034,0.016c0.013,0.008,0.021,0.018,0.03,0.025c0.22,0.125,0.458,0.197,0.689,0.282
		c0.123,0.045,0.237,0.114,0.365,0.147c0.375,0.101,0.76,0.152,1.146,0.152c0.385,0,0.77-0.052,1.145-0.152
		c0.125-0.032,0.24-0.104,0.365-0.147c0.234-0.085,0.47-0.157,0.689-0.282c0.013-0.008,0.021-0.018,0.032-0.025
		c0.01-0.008,0.022-0.008,0.035-0.016l61.047-36.17c1.351-0.8,2.181-2.255,2.181-3.825v-67.859
		C2833.513,4187.4,2832.705,4185.96,2831.38,4185.152z M2711.418,4196.245l52.154,26.893v62.04l-52.154-30.9V4196.245z
		 M2824.62,4254.277l-52.155,30.9v-62.04l52.155-26.893V4254.277z"/>
	<path fill="#FFFFFF" d="M3093.023,4188.908c0-0.09-0.032-0.173-0.041-0.263c-0.022-0.306-0.052-0.607-0.135-0.897
		c-0.04-0.143-0.109-0.27-0.164-0.408c-0.09-0.228-0.178-0.454-0.303-0.665c-0.083-0.14-0.19-0.26-0.29-0.39
		c-0.138-0.183-0.275-0.362-0.44-0.521c-0.125-0.12-0.265-0.217-0.405-0.322c-0.123-0.093-0.226-0.207-0.357-0.287
		c-0.064-0.04-0.138-0.055-0.205-0.093c-0.06-0.032-0.105-0.08-0.165-0.109l-61.047-29.684c-1.226-0.597-2.66-0.597-3.888,0
		l-61.048,29.684c-0.06,0.029-0.104,0.077-0.164,0.109c-0.068,0.035-0.14,0.053-0.205,0.093c-0.133,0.08-0.235,0.192-0.358,0.287
		c-0.14,0.105-0.279,0.203-0.405,0.322c-0.164,0.16-0.303,0.341-0.439,0.521c-0.098,0.13-0.205,0.25-0.29,0.39
		c-0.125,0.21-0.213,0.438-0.303,0.665c-0.055,0.138-0.125,0.266-0.165,0.408c-0.082,0.29-0.112,0.593-0.135,0.897
		c-0.005,0.09-0.037,0.173-0.04,0.263c0,0.007,0.002,0.012,0.002,0.02s-0.002,0.016-0.002,0.022v67.86c0,1.57,0.83,3.025,2.18,3.825
		l61.048,36.17c0.01,0.005,0.024,0.007,0.034,0.016c0.01,0.008,0.021,0.018,0.03,0.024c0.22,0.125,0.46,0.198,0.695,0.283
		c0.123,0.045,0.235,0.112,0.36,0.147c0.374,0.1,0.76,0.152,1.145,0.152c0.386,0,0.771-0.053,1.146-0.152
		c0.125-0.032,0.239-0.105,0.364-0.147c0.233-0.085,0.471-0.158,0.69-0.283c0.012-0.007,0.02-0.018,0.029-0.024
		c0.01-0.008,0.025-0.008,0.035-0.016l61.045-36.17c1.353-0.8,2.18-2.255,2.18-3.825v-67.86c0-0.007-0.002-0.015-0.002-0.022
		C3093.009,4188.921,3093.023,4188.915,3093.023,4188.908z M3027.53,4164.21l51.075,24.835l-51.075,26.053l-51.074-26.053
		L3027.53,4164.21z M2970.93,4196.245l52.155,26.893v62.04l-52.155-30.9V4196.245z M3084.13,4254.277l-52.152,30.9v-62.04
		l52.152-26.893V4254.277z"/>
	
		<line fill="none" stroke="#FFFFFF" stroke-width="4" stroke-miterlimit="10" x1="2602.542" y1="4218.942" x2="2676.18" y2="4218.942"/>
	
		<line fill="none" stroke="#FFFFFF" stroke-width="4" stroke-miterlimit="10" x1="2861.517" y1="4219.1" x2="2935.155" y2="4219.1"/>
	
		<line fill="none" stroke="#FFFFFF" stroke-width="4" stroke-miterlimit="10" x1="3122.992" y1="4215.098" x2="3196.63" y2="4215.098"/>
	<g>
		<path fill="#FFFFFF" d="M2304.8,3978.366c-3.696,0-6.304-0.596-7.824-1.793c-1.523-1.194-2.282-3.313-2.282-6.357v-3.097
			c0-3.15,0.841-5.298,2.526-6.438c1.684-1.142,4.264-1.712,7.743-1.712c3.802,0,6.464,0.599,7.986,1.793
			c1.521,1.197,2.282,3.316,2.282,6.357v3.097c0,3.153-0.814,5.298-2.445,6.438
			C2311.156,3977.796,2308.492,3978.366,2304.8,3978.366z M2314.742,4066.222c0,2.827-0.924,5.19-2.771,7.091
			c-1.85,1.902-4.185,2.853-7.009,2.853c-2.827,0-5.163-0.95-7.01-2.853c-1.849-1.9-2.771-4.264-2.771-7.091v-67.318
			c0-2.825,0.922-5.188,2.771-7.091c1.847-1.9,4.183-2.853,7.01-2.853c2.824,0,5.159,0.952,7.009,2.853
			c1.847,1.902,2.771,4.266,2.771,7.091V4066.222z"/>
		<path fill="#FFFFFF" d="M2381.408,3987.331c8.041,0,14.153,1.686,18.338,5.053c4.182,3.37,7.063,7.853,8.639,13.447
			c1.574,5.599,2.363,11.818,2.363,18.664v41.728c0,2.827-0.924,5.19-2.771,7.091c-1.85,1.902-4.185,2.853-7.009,2.853
			c-2.827,0-5.163-0.95-7.01-2.853c-1.849-1.9-2.771-4.264-2.771-7.091v-41.728c0-3.586-0.464-6.818-1.386-9.698
			c-0.925-2.878-2.582-5.188-4.972-6.928c-2.392-1.737-5.814-2.608-10.269-2.608c-4.348,0-8.016,0.871-11.003,2.608
			c-2.99,1.739-5.271,4.05-6.846,6.928c-1.576,2.88-2.363,6.112-2.363,9.698v41.728c0,2.827-0.925,5.19-2.771,7.091
			c-1.849,1.902-4.185,2.853-7.009,2.853c-2.827,0-5.162-0.95-7.009-2.853c-1.85-1.9-2.771-4.264-2.771-7.091v-67.318
			c0-2.825,0.922-5.188,2.771-7.091c1.847-1.9,4.182-2.853,7.009-2.853c2.824,0,5.16,0.952,7.009,2.853
			c1.847,1.902,2.771,4.266,2.771,7.091v7.009l-2.445-0.489c0.979-1.847,2.389-3.83,4.238-5.949c1.847-2.119,4.019-4.101,6.52-5.949
			c2.499-1.847,5.323-3.342,8.477-4.482C2374.29,3987.901,2377.713,3987.331,2381.408,3987.331z"/>
		<path fill="#FFFFFF" d="M2439.435,4035.905c-2.827,0-5.19-0.922-7.09-2.771c-1.903-1.847-2.853-4.182-2.853-7.009
			c0-2.824,0.949-5.135,2.853-6.928c1.899-1.793,4.263-2.689,7.09-2.689h28.362c2.824,0,5.188,0.953,7.091,2.853
			c1.899,1.902,2.853,4.267,2.853,7.091c0,2.718-0.953,4.972-2.853,6.765c-1.903,1.793-4.267,2.689-7.091,2.689H2439.435z"/>
		<path fill="#FFFFFF" d="M2577.985,3967.608c2.825,1.413,4.482,3.642,4.972,6.683c0.489,3.044-0.301,5.814-2.363,8.313
			c-1.414,1.955-3.234,3.043-5.461,3.26c-2.229,0.219-4.482-0.217-6.765-1.305c-2.607-1.194-5.354-2.118-8.231-2.771
			c-2.88-0.652-5.896-0.979-9.046-0.979c-5.868,0-11.112,0.925-15.729,2.771c-4.62,1.849-8.558,4.482-11.817,7.905
			c-3.261,3.423-5.733,7.473-7.417,12.144c-1.686,4.674-2.526,9.836-2.526,15.485c0,6.629,0.95,12.388,2.853,17.277
			c1.9,4.891,4.536,8.966,7.905,12.226c3.367,3.26,7.335,5.68,11.899,7.253c4.563,1.577,9.507,2.364,14.833,2.364
			c2.934,0,5.868-0.271,8.802-0.815c2.934-0.542,5.759-1.521,8.476-2.934c2.282-1.085,4.536-1.468,6.765-1.142
			c2.227,0.326,4.101,1.468,5.624,3.423c2.172,2.718,2.959,5.517,2.363,8.395c-0.599,2.881-2.257,4.972-4.972,6.276
			c-2.827,1.413-5.732,2.582-8.721,3.504c-2.989,0.925-6.005,1.63-9.046,2.119c-3.044,0.489-6.141,0.733-9.291,0.733
			c-7.824,0-15.24-1.25-22.25-3.749c-7.009-2.498-13.259-6.194-18.745-11.084c-5.488-4.89-9.808-11.002-12.958-18.337
			c-3.153-7.336-4.728-15.837-4.728-25.51c0-8.366,1.439-16.081,4.32-23.146c2.878-7.063,6.952-13.175,12.225-18.337
			c5.27-5.16,11.491-9.182,18.663-12.063c7.173-2.878,14.996-4.319,23.473-4.319c4.78,0,9.454,0.545,14.018,1.63
			C2569.672,3963.969,2573.963,3965.545,2577.985,3967.608z"/>
		<path fill="#FFFFFF" d="M2619.876,4066.222c0,2.827-0.953,5.19-2.853,7.091c-1.902,1.902-4.267,2.853-7.091,2.853
			c-2.718,0-4.999-0.95-6.846-2.853c-1.85-1.9-2.771-4.264-2.771-7.091v-100.733c0-2.825,0.95-5.188,2.853-7.091
			c1.9-1.899,4.264-2.853,7.091-2.853c2.824,0,5.135,0.953,6.928,2.853c1.793,1.902,2.689,4.266,2.689,7.091V4066.222z"/>
		<path fill="#FFFFFF" d="M2725.662,4032.644c0,8.912-1.984,16.764-5.95,23.554c-3.968,6.793-9.291,12.09-15.974,15.893
			c-6.683,3.806-14.155,5.705-22.412,5.705c-8.26,0-15.729-1.899-22.413-5.705c-6.683-3.803-12.009-9.1-15.974-15.893
			c-3.968-6.79-5.95-14.642-5.95-23.554c0-8.908,1.982-16.761,5.95-23.553c3.965-6.79,9.291-12.116,15.974-15.975
			c6.684-3.855,14.153-5.786,22.413-5.786c8.257,0,15.729,1.931,22.412,5.786c6.683,3.858,12.006,9.185,15.974,15.975
			C2723.678,4015.884,2725.662,4023.736,2725.662,4032.644z M2706.102,4032.644c0-5.542-1.115-10.35-3.342-14.425
			c-2.229-4.075-5.216-7.254-8.965-9.536c-3.749-2.281-7.905-3.423-12.469-3.423c-4.564,0-8.721,1.142-12.47,3.423
			c-3.749,2.282-6.739,5.461-8.965,9.536c-2.229,4.075-3.342,8.883-3.342,14.425c0,5.436,1.113,10.188,3.342,14.263
			c2.226,4.075,5.216,7.254,8.965,9.536c3.749,2.281,7.905,3.423,12.47,3.423c4.563,0,8.72-1.142,12.469-3.423
			c3.749-2.282,6.736-5.461,8.965-9.536C2704.987,4042.832,2706.102,4038.08,2706.102,4032.644z"/>
		<path fill="#FFFFFF" d="M2807.487,3988.961c2.825,0,5.16,0.952,7.01,2.853c1.846,1.902,2.771,4.266,2.771,7.091v41.401
			c0,11.52-3.206,20.647-9.617,27.385c-6.413,6.738-15.647,10.105-27.71,10.105c-12.062,0-21.271-3.367-27.628-10.105
			c-6.357-6.737-9.536-15.865-9.536-27.385v-41.401c0-2.825,0.922-5.188,2.771-7.091c1.847-1.9,4.182-2.853,7.009-2.853
			c2.824,0,5.16,0.952,7.009,2.853c1.847,1.902,2.771,4.266,2.771,7.091v41.401c0,6.63,1.467,11.548,4.4,14.752
			c2.935,3.206,7.335,4.809,13.203,4.809c5.976,0,10.433-1.603,13.366-4.809c2.934-3.204,4.401-8.122,4.401-14.752v-41.401
			c0-2.825,0.922-5.188,2.771-7.091C2802.324,3989.913,2804.659,3988.961,2807.487,3988.961z"/>
		<path fill="#FFFFFF" d="M2909.85,3955.546c2.824,0,5.16,0.925,7.009,2.771c1.847,1.849,2.771,4.237,2.771,7.172v100.733
			c0,2.827-0.924,5.19-2.771,7.091c-1.849,1.902-4.185,2.853-7.009,2.853c-2.827,0-5.163-0.95-7.009-2.853
			c-1.85-1.9-2.771-4.264-2.771-7.091v-7.986l3.586,1.467c0,1.413-0.762,3.125-2.282,5.135c-1.522,2.012-3.586,3.993-6.193,5.949
			c-2.608,1.956-5.68,3.614-9.21,4.972c-3.532,1.357-7.363,2.037-11.491,2.037c-7.498,0-14.291-1.928-20.375-5.786
			c-6.087-3.856-10.896-9.182-14.426-15.975c-3.532-6.79-5.298-14.588-5.298-23.391c0-8.908,1.766-16.761,5.298-23.553
			c3.53-6.79,8.285-12.116,14.263-15.975c5.975-3.855,12.604-5.786,19.886-5.786c4.671,0,8.965,0.708,12.877,2.119
			c3.912,1.413,7.308,3.206,10.188,5.379c2.878,2.175,5.106,4.375,6.684,6.602c1.573,2.229,2.363,4.103,2.363,5.623l-5.868,2.119
			v-43.684c0-2.825,0.922-5.188,2.771-7.091C2904.687,3956.499,2907.023,3955.546,2909.85,3955.546z M2876.924,4059.866
			c4.78,0,8.965-1.194,12.551-3.586c3.586-2.39,6.382-5.649,8.395-9.78c2.009-4.129,3.016-8.746,3.016-13.855
			c0-5.216-1.007-9.887-3.016-14.018c-2.013-4.129-4.809-7.389-8.395-9.78c-3.586-2.389-7.771-3.586-12.551-3.586
			c-4.674,0-8.803,1.197-12.389,3.586c-3.586,2.392-6.385,5.651-8.395,9.78c-2.012,4.131-3.016,8.802-3.016,14.018
			c0,5.109,1.004,9.727,3.016,13.855c2.01,4.131,4.809,7.391,8.395,9.78C2868.121,4058.672,2872.25,4059.866,2876.924,4059.866z"/>
		<path fill="#FFFFFF" d="M3067.957,3967.608c2.825,1.413,4.482,3.642,4.972,6.683c0.489,3.044-0.301,5.814-2.363,8.313
			c-1.414,1.955-3.234,3.043-5.461,3.26c-2.229,0.219-4.482-0.217-6.765-1.305c-2.607-1.194-5.354-2.118-8.231-2.771
			c-2.88-0.652-5.896-0.979-9.046-0.979c-5.868,0-11.112,0.925-15.729,2.771c-4.62,1.849-8.558,4.482-11.817,7.905
			c-3.261,3.423-5.733,7.473-7.417,12.144c-1.686,4.674-2.526,9.836-2.526,15.485c0,6.629,0.95,12.388,2.853,17.277
			c1.9,4.891,4.536,8.966,7.905,12.226c3.367,3.26,7.335,5.68,11.899,7.253c4.563,1.577,9.507,2.364,14.833,2.364
			c2.934,0,5.868-0.271,8.802-0.815c2.934-0.542,5.759-1.521,8.476-2.934c2.282-1.085,4.536-1.468,6.765-1.142
			c2.227,0.326,4.101,1.468,5.624,3.423c2.172,2.718,2.959,5.517,2.363,8.395c-0.599,2.881-2.257,4.972-4.972,6.276
			c-2.827,1.413-5.732,2.582-8.721,3.504c-2.989,0.925-6.005,1.63-9.046,2.119c-3.044,0.489-6.141,0.733-9.291,0.733
			c-7.824,0-15.24-1.25-22.25-3.749c-7.009-2.498-13.259-6.194-18.745-11.084c-5.488-4.89-9.808-11.002-12.958-18.337
			c-3.153-7.336-4.728-15.837-4.728-25.51c0-8.366,1.439-16.081,4.32-23.146c2.878-7.063,6.952-13.175,12.225-18.337
			c5.27-5.16,11.491-9.182,18.663-12.063c7.173-2.878,14.996-4.319,23.473-4.319c4.78,0,9.454,0.545,14.018,1.63
			C3059.645,3963.969,3063.936,3965.545,3067.957,3967.608z"/>
		<path fill="#FFFFFF" d="M3173.256,4032.644c0,8.912-1.984,16.764-5.95,23.554c-3.968,6.793-9.291,12.09-15.974,15.893
			c-6.683,3.806-14.155,5.705-22.412,5.705c-8.26,0-15.729-1.899-22.413-5.705c-6.683-3.803-12.009-9.1-15.974-15.893
			c-3.968-6.79-5.95-14.642-5.95-23.554c0-8.908,1.982-16.761,5.95-23.553c3.965-6.79,9.291-12.116,15.974-15.975
			c6.684-3.855,14.153-5.786,22.413-5.786c8.257,0,15.729,1.931,22.412,5.786c6.683,3.858,12.006,9.185,15.974,15.975
			C3171.272,4015.884,3173.256,4023.736,3173.256,4032.644z M3153.696,4032.644c0-5.542-1.115-10.35-3.342-14.425
			c-2.229-4.075-5.216-7.254-8.965-9.536c-3.749-2.281-7.905-3.423-12.469-3.423c-4.564,0-8.721,1.142-12.47,3.423
			c-3.749,2.282-6.739,5.461-8.965,9.536c-2.229,4.075-3.342,8.883-3.342,14.425c0,5.436,1.113,10.188,3.342,14.263
			c2.226,4.075,5.216,7.254,8.965,9.536c3.749,2.281,7.905,3.423,12.47,3.423c4.563,0,8.72-1.142,12.469-3.423
			c3.749-2.282,6.736-5.461,8.965-9.536C3152.58,4042.832,3153.696,4038.08,3153.696,4032.644z"/>
		<path fill="#FFFFFF" d="M3236.988,3987.331c8.041,0,14.153,1.686,18.338,5.053c4.182,3.37,7.063,7.853,8.639,13.447
			c1.574,5.599,2.363,11.818,2.363,18.664v41.728c0,2.827-0.924,5.19-2.771,7.091c-1.85,1.902-4.185,2.853-7.009,2.853
			c-2.827,0-5.163-0.95-7.01-2.853c-1.849-1.9-2.771-4.264-2.771-7.091v-41.728c0-3.586-0.464-6.818-1.386-9.698
			c-0.925-2.878-2.582-5.188-4.972-6.928c-2.392-1.737-5.814-2.608-10.269-2.608c-4.348,0-8.016,0.871-11.003,2.608
			c-2.99,1.739-5.271,4.05-6.846,6.928c-1.576,2.88-2.363,6.112-2.363,9.698v41.728c0,2.827-0.925,5.19-2.771,7.091
			c-1.849,1.902-4.185,2.853-7.009,2.853c-2.827,0-5.162-0.95-7.009-2.853c-1.85-1.9-2.771-4.264-2.771-7.091v-67.318
			c0-2.825,0.922-5.188,2.771-7.091c1.847-1.9,4.182-2.853,7.009-2.853c2.824,0,5.16,0.952,7.009,2.853
			c1.847,1.902,2.771,4.266,2.771,7.091v7.009l-2.445-0.489c0.979-1.847,2.389-3.83,4.238-5.949c1.847-2.119,4.019-4.101,6.52-5.949
			c2.499-1.847,5.323-3.342,8.477-4.482C3229.869,3987.901,3233.292,3987.331,3236.988,3987.331z"/>
		<path fill="#FFFFFF" d="M3282.463,4062.636c-1.088-1.521-1.576-3.477-1.467-5.868c0.106-2.389,1.521-4.454,4.238-6.193
			c1.736-1.085,3.586-1.549,5.542-1.386c1.955,0.163,3.855,1.169,5.704,3.016c3.151,3.153,6.465,5.598,9.943,7.335
			c3.477,1.739,7.824,2.608,13.04,2.608c1.63-0.107,3.423-0.352,5.379-0.734c1.956-0.379,3.668-1.247,5.135-2.607
			c1.467-1.357,2.2-3.448,2.2-6.275c0-2.39-0.814-4.292-2.445-5.705c-1.63-1.411-3.776-2.608-6.438-3.586
			c-2.664-0.979-5.623-1.9-8.883-2.771c-3.37-0.978-6.82-2.063-10.351-3.26c-3.532-1.194-6.765-2.743-9.698-4.646
			c-2.935-1.9-5.326-4.427-7.173-7.579c-1.849-3.15-2.771-7.116-2.771-11.899c0-5.433,1.521-10.05,4.563-13.854
			c3.041-3.803,6.981-6.737,11.818-8.803c4.834-2.063,9.915-3.097,15.24-3.097c3.367,0,6.899,0.407,10.595,1.223
			c3.693,0.814,7.226,2.119,10.595,3.912c3.367,1.793,6.194,4.156,8.477,7.09c1.194,1.63,1.899,3.586,2.119,5.868
			c0.216,2.282-0.815,4.348-3.098,6.194c-1.63,1.304-3.532,1.874-5.705,1.711c-2.175-0.162-3.968-0.896-5.379-2.2
			c-1.849-2.389-4.319-4.291-7.416-5.705c-3.097-1.411-6.657-2.119-10.677-2.119c-1.63,0-3.397,0.191-5.297,0.571
			c-1.903,0.382-3.561,1.196-4.972,2.444c-1.414,1.251-2.119,3.234-2.119,5.949c0,2.502,0.814,4.483,2.445,5.95
			c1.63,1.467,3.83,2.664,6.601,3.586c2.771,0.925,5.73,1.821,8.884,2.689c3.26,0.871,6.573,1.902,9.943,3.097
			c3.367,1.197,6.464,2.771,9.291,4.728c2.824,1.956,5.106,4.482,6.846,7.579c1.737,3.097,2.608,7.037,2.608,11.817
			c0,5.542-1.63,10.27-4.891,14.182c-3.26,3.911-7.335,6.874-12.225,8.883c-4.89,2.01-9.89,3.016-14.996,3.016
			c-6.413,0-12.823-1.115-19.234-3.342C3292.024,4072.228,3286.701,4068.288,3282.463,4062.636z"/>
		<path fill="#FFFFFF" d="M3450.679,4032.644c0,8.912-1.984,16.764-5.95,23.554c-3.968,6.793-9.291,12.09-15.974,15.893
			c-6.683,3.806-14.155,5.705-22.412,5.705c-8.26,0-15.729-1.899-22.413-5.705c-6.683-3.803-12.009-9.1-15.974-15.893
			c-3.968-6.79-5.95-14.642-5.95-23.554c0-8.908,1.982-16.761,5.95-23.553c3.965-6.79,9.291-12.116,15.974-15.975
			c6.684-3.855,14.153-5.786,22.413-5.786c8.257,0,15.729,1.931,22.412,5.786c6.683,3.858,12.006,9.185,15.974,15.975
			C3448.695,4015.884,3450.679,4023.736,3450.679,4032.644z M3431.118,4032.644c0-5.542-1.115-10.35-3.342-14.425
			c-2.229-4.075-5.216-7.254-8.965-9.536c-3.749-2.281-7.905-3.423-12.469-3.423c-4.564,0-8.721,1.142-12.47,3.423
			c-3.749,2.282-6.739,5.461-8.965,9.536c-2.229,4.075-3.342,8.883-3.342,14.425c0,5.436,1.113,10.188,3.342,14.263
			c2.226,4.075,5.216,7.254,8.965,9.536c3.749,2.281,7.905,3.423,12.47,3.423c4.563,0,8.72-1.142,12.469-3.423
			c3.749-2.282,6.736-5.461,8.965-9.536C3430.003,4042.832,3431.118,4038.08,3431.118,4032.644z"/>
		<path fill="#FFFFFF" d="M3488.983,4066.222c0,2.827-0.953,5.19-2.853,7.091c-1.902,1.902-4.267,2.853-7.091,2.853
			c-2.718,0-4.999-0.95-6.846-2.853c-1.85-1.9-2.771-4.264-2.771-7.091v-100.733c0-2.825,0.95-5.188,2.853-7.091
			c1.9-1.899,4.264-2.853,7.091-2.853c2.824,0,5.135,0.953,6.928,2.853c1.793,1.902,2.689,4.266,2.689,7.091V4066.222z"/>
		<path fill="#FFFFFF" d="M3551.247,4077.796c-9.237,0-17.252-1.928-24.042-5.786c-6.793-3.856-12.009-9.101-15.648-15.729
			c-3.642-6.627-5.461-14.125-5.461-22.494c0-9.78,1.982-18.118,5.95-25.021c3.965-6.899,9.153-12.197,15.566-15.893
			c6.41-3.693,13.203-5.542,20.375-5.542c5.542,0,10.783,1.141,15.729,3.423c4.943,2.282,9.316,5.407,13.121,9.373
			c3.803,3.968,6.818,8.557,9.047,13.773c2.226,5.216,3.342,10.758,3.342,16.626c-0.11,2.607-1.142,4.727-3.098,6.356
			s-4.237,2.445-6.846,2.445h-62.266l-4.891-16.3h59.821l-3.586,3.26v-4.401c-0.219-3.15-1.332-5.975-3.342-8.476
			c-2.012-2.499-4.511-4.482-7.498-5.949c-2.99-1.468-6.168-2.201-9.535-2.201c-3.26,0-6.304,0.436-9.128,1.305
			c-2.827,0.871-5.272,2.338-7.335,4.4c-2.065,2.065-3.695,4.837-4.891,8.313c-1.196,3.479-1.793,7.88-1.793,13.203
			c0,5.867,1.223,10.839,3.668,14.914s5.596,7.172,9.454,9.291c3.855,2.119,7.959,3.179,12.307,3.179
			c4.019,0,7.226-0.326,9.616-0.979c2.39-0.651,4.32-1.438,5.787-2.363c1.467-0.922,2.796-1.711,3.993-2.363
			c1.956-0.979,3.803-1.467,5.542-1.467c2.389,0,4.373,0.814,5.949,2.444c1.574,1.63,2.364,3.533,2.364,5.705
			c0,2.935-1.523,5.599-4.564,7.987c-2.827,2.392-6.792,4.482-11.898,6.275C3561.949,4076.899,3556.68,4077.796,3551.247,4077.796z"
			/>
	</g>
</g>
</svg>
