<?xml version="1.0" encoding="utf-8"?>
<!-- Generator: Adobe Illustrator 16.0.0, SVG Export Plug-In . SVG Version: 6.00 Build 0)  -->
<!DOCTYPE svg PUBLIC "-//W3C//DTD SVG 1.1//EN" "http://www.w3.org/Graphics/SVG/1.1/DTD/svg11.dtd">
<svg version="1.1" id="Слой_2" xmlns="http://www.w3.org/2000/svg" xmlns:xlink="http://www.w3.org/1999/xlink" x="0px" y="0px"
	 width="2000px" height="2000px" viewBox="0 0 2000 2000" enable-background="new 0 0 2000 2000" xml:space="preserve">
<circle fill="#25C2A0" cx="1000" cy="1000" r="1000"/>
<path fill="#FFFFFF" d="M1425.357,626.97H574.643c-77.043,0-139.498,62.454-139.498,139.499v495.063
	c0,77.043,62.455,139.497,139.498,139.497h850.715c77.043,0,139.498-62.454,139.498-139.497V766.469
	C1564.855,689.424,1502.4,626.97,1425.357,626.97z M1505.029,1281.12c16.265,14.399,17.775,39.257,3.376,55.52
	c-7.772,8.778-18.594,13.261-29.462,13.261c-9.27,0-18.572-3.256-26.058-9.885l-316.298-280.039l-100.576,89.046
	c-7.436,6.582-16.752,9.885-26.074,9.885c-9.054,0-18.11-3.112-25.46-9.355l-106.556-90.503l-331.418,281.497
	c-7.396,6.281-16.444,9.354-25.443,9.354c-11.145,0-22.216-4.71-29.996-13.871c-14.063-16.556-12.04-41.377,4.516-55.438
	l321.588-273.146L495.58,734.298c-16.556-14.062-18.579-38.882-4.516-55.438c14.062-16.555,38.883-18.579,55.439-4.516
	l356.947,303.18c0.104,0.088,0.208,0.174,0.311,0.263l105.643,89.73l443.481-392.645c16.263-14.398,41.12-12.887,55.52,3.376
	c14.399,16.264,12.889,41.121-3.376,55.52l-309.109,273.676L1505.029,1281.12z"/>
</svg>
