<?xml version="1.0" encoding="utf-8"?>
<!-- Generator: Adobe Illustrator 16.0.0, SVG Export Plug-In . SVG Version: 6.00 Build 0)  -->
<!DOCTYPE svg PUBLIC "-//W3C//DTD SVG 1.1//EN" "http://www.w3.org/Graphics/SVG/1.1/DTD/svg11.dtd">
<svg version="1.1" id="Слой_2" xmlns="http://www.w3.org/2000/svg" xmlns:xlink="http://www.w3.org/1999/xlink" x="0px" y="0px"
	 width="2001px" height="2001px" viewBox="0 0 2001 2001" enable-background="new 0 0 2001 2001" xml:space="preserve">
<circle fill="#25C2A0" cx="1000.5" cy="1000.5" r="1000"/>
<path fill="#FFFFFF" d="M592.5,1146.5l-206-58c0,0-84-38,54-98s712-304,862-364s192-54,170,88s-104,640-104,640s-12,224-148,146
	s-334-226-334-226s-86-30-22-100s322-309,322-309s28-24,10-39s-82,39-82,39l-372,246C742.5,1111.5,665.5,1173.5,592.5,1146.5z"/>
</svg>
